# xmcd
#
# Track frame offsets:
#	150
#	25443
#	49569
#	75320
#	97381
#	116204
#	136667
#	153608
#	178226
#	191503
#
# Disc length: 2828 seconds
#
# Revision: 1
# Processed by: cddbd v1.5.2PL0 Copyright (c) Steve Scherf et al.
# Submitted via: audiograbber 1.83.01
#
DISCID=850b0a0a
DTITLE=Shane Howard Band - Out Of Control
DYEAR=2009
DGENRE=Country
TTITLE0=Out Of Control
TTITLE1=Rumors Fly
TTITLE2=Life Looking Back At Me
TTITLE3=Things Will Be Different
TTITLE4=Say The Word
TTITLE5=Emma's Song (Legacy of Love)
TTITLE6=The Will To Walk
TTITLE7=Running Out Of Reasons
TTITLE8=My Town
TTITLE9=1953
EXTD=
EXTT0=
EXTT1=
EXTT2=
EXTT3=
EXTT4=
EXTT5=
EXTT6=
EXTT7=
EXTT8=
EXTT9=
PLAYORDER=
